<?xml version="1.0" encoding="UTF-8"?><svg id="Layer_2" xmlns="http://www.w3.org/2000/svg" viewBox="0 0 1619.21 2000"><defs><style>.cls-1{fill:#f58220;}.cls-2,.cls-3{fill:#010101;}.cls-3{fill-rule:evenodd;}</style></defs><g id="Code_Geek_Logo"><g id="Logo_Shape"><path class="cls-1" d="m157.25,393.99c-11.51.03-21.99,10.12-22.1,21.86-.19,61.47-.94,122.96,0,184.42.54,24.9,22.58,47.3,47.99,47.69,128.16,1.2,256.35,1.97,384.5,0,26.32-.57,50.04-23.56,50.12-51.18v-202.79H157.25Zm844.19,0c0,67.95-1.06,135.9.01,203.85.56,26,23.58,49.71,50.44,50.13,128.15,1.22,256.33,1.97,384.47,0,24.88-.54,47.3-22.59,47.69-47.98.58-61.29,0-122.59,0-183.89,0-11.6-10.21-21.98-21.85-22.1-153.58-.46-307.18,0-460.76,0ZM157.05,258.97s1107.12-.6,1305.99,0c80.56.75,155.25,70.05,156.03,156.04.19,61.83.19,123.66,0,185.48-.86,92.48-79.27,178.13-175.65,182.31-2.27.1-4.55.15-6.82.17-128.41.39-256.82.38-385.23,0-96.18-.91-184.61-83.02-184.94-185.98v-46.09c0-14.9-5.92-29.19-16.46-39.73-10.54-10.54-24.82-16.46-39.72-16.46h-1.27c-31.03,0-56.19,25.15-56.19,56.19v46.09c-.23,75.99-50.91,149.65-124.41,175.47-19.4,6.82-39.92,10.32-60.53,10.52-128.41.38-256.82.39-385.23,0-92.6-.87-178.12-79.11-182.31-175.65-.1-2.27-.15-4.55-.17-6.83-.19-61.83-.19-123.66,0-185.49.76-81.02,71.12-155.78,156.9-156.04Z"/><path class="cls-3" d="m494.53,451.01c45.53,0,82.48,36.96,82.48,82.48s-36.96,82.49-82.48,82.49-82.48-36.96-82.48-82.49,36.96-82.48,82.48-82.48Z"/><path class="cls-3" d="m1124.68,451.01c45.53,0,82.49,36.96,82.49,82.48s-36.96,82.49-82.49,82.49-82.48-36.96-82.48-82.49,36.96-82.48,82.48-82.48Z"/><path class="cls-2" d="m1243.06,258.74c-7.73-33.71-21.21-58.61-40.44-74.7-32.15-26.91-85.62-40.35-160.42-40.35V0h7.87c70.86,0,130.24,7.56,178.13,22.65,47.9,15.09,86.28,36.72,115.15,64.94,28.87,28.22,49.2,63.32,61.02,105.31,5.79,20.58,10.16,42.57,13.11,65.98-43.66-.07-103.85-.11-174.42-.14Zm198.4,524.14c6.55,14.13,14.86,27.1,24.91,38.9,15.09,17.71,33.79,32.15,56.1,43.3,22.31,11.15,49.21,16.73,80.7,16.73v141.72c-31.49,0-58.39,5.58-80.7,16.73-22.31,11.15-41.01,25.59-56.1,43.3-15.09,17.72-26.25,38.06-33.46,61.02-7.22,22.97-10.83,46.26-10.83,69.88v354.3c0,53.8-5.9,101.7-17.71,143.69-11.81,41.99-32.15,77.42-61.02,106.28-28.87,28.87-67.25,50.52-115.15,64.96-47.9,14.43-107.27,21.65-178.13,21.65h-7.87v-143.69c74.8,0,128.27-13.45,160.42-40.35,32.15-26.9,48.22-78.41,48.22-154.52v-303.12c0-86.61,11.48-153.53,34.45-200.77,22.97-47.24,55.44-83.98,97.43-110.22-41.99-26.25-74.47-62.99-97.43-110.23-8.33-17.13-15.15-36.86-20.46-59.18,57.25-.02,114.51-.11,171.76-.28,1.63-.01,3.25-.04,4.87-.1Z"/><path class="cls-2" d="m201.73,258.95c2.95-23.44,7.32-45.45,13.11-66.05,11.81-41.98,32.15-77.09,61.02-105.31,28.87-28.22,67.25-49.86,115.15-64.94C438.9,7.56,498.28,0,569.14,0h7.87v143.69c-74.8,0-128.27,13.43-160.42,40.35-19.26,16.12-32.75,41.06-40.47,74.83-75.04.03-136.01.06-174.4.08Zm-23.96,523.91c1.62.07,3.24.11,4.86.12,57.25.17,114.5.27,171.76.28-5.31,22.32-12.13,42.05-20.46,59.18-22.96,47.24-55.44,83.98-97.43,110.23,41.99,26.24,74.47,62.98,97.43,110.22,22.96,47.24,34.45,114.16,34.45,200.77v303.12c0,76.11,16.07,127.61,48.23,154.52,30.54,25.55,80.32,38.97,149.34,40.25,3.64.07,7.33.1,11.07.1v143.69h-7.87c-70.86,0-130.24-7.22-178.13-21.65-47.89-14.44-86.28-36.09-115.15-64.96-28.87-28.87-49.21-64.3-61.02-106.28-11.81-41.99-17.71-89.89-17.71-143.69v-354.3c0-23.62-3.61-46.91-10.83-69.88-7.22-22.96-18.37-43.3-33.46-61.02-15.09-17.71-33.79-32.15-56.1-43.3-22.3-11.15-49.21-16.73-80.7-16.73v-141.72c31.49,0,58.39-5.58,80.7-16.73,22.31-11.15,41.01-25.59,56.1-43.3,10.06-11.81,18.36-24.78,24.92-38.92Z"/><path class="cls-2" d="m809.61,1045.19c54.07,0,104.13-7.81,150.18-23.44,46.05-15.63,88.71-38.65,128-69.07l28.51,41.82c-40.13,32.95-86.29,59.46-138.46,79.52-52.17,20.07-108.25,30.1-168.24,30.1s-116.07-10.03-168.24-30.1c-52.17-20.06-98.33-46.57-138.46-79.52l28.51-41.82c39.29,30.42,81.96,53.44,128,69.07,46.05,15.63,96.11,23.44,150.18,23.44Z"/><path class="cls-3" d="m809.61,1832.59s-126.43,106.03-192.86,161.75c-7.2,6.04-17.25,7.36-25.77,3.39-8.52-3.97-13.96-12.52-13.96-21.92v-286.44c0-9.4,5.45-17.95,13.96-21.92,8.52-3.98,18.57-2.65,25.77,3.39,66.43,55.72,192.86,161.75,192.86,161.75Z"/><path class="cls-3" d="m809.61,1832.59s126.42,106.03,192.86,161.75c7.2,6.04,17.25,7.36,25.77,3.39,8.52-3.97,13.96-12.52,13.96-21.92v-286.44c0-9.4-5.45-17.95-13.96-21.92-8.52-3.98-18.57-2.65-25.77,3.39-66.44,55.72-192.86,161.75-192.86,161.75Z"/></g></g></svg>